REM DIRINDEX 1\5,1\2\6,1\2\7,1\3\8,1\3\9,1\4\10,1\4\11,1\4\12
REM DIRNAME cjc026,folder01,folder02,folder03,folder04,folder05,folder06,folder07,folder08,folder09,folder10,folder11
TITLE ""
FILE "EJ_DB3000_5th_5C_24.mp3" MP3
  TRACK 01 AUDIO
    TITLE "0:"
    INDEX 01 00:00:00
  TRACK 02 AUDIO
    TITLE "9:cjc026_06211"
    INDEX 01 00:00:08
  TRACK 03 AUDIO
    TITLE "0:"
    INDEX 01 00:01:22
  TRACK 04 AUDIO
    TITLE "8:cjc026_06212"
    INDEX 01 00:01:57
  TRACK 05 AUDIO
    TITLE "0:"
    INDEX 01 00:03:39
  TRACK 06 AUDIO
    TITLE "9:cjc026_06213"
    INDEX 01 00:03:74
  TRACK 07 AUDIO
    TITLE "0:"
    INDEX 01 00:05:19
  TRACK 08 AUDIO
    TITLE "8:cjc026_06214"
    INDEX 01 00:05:54
  TRACK 09 AUDIO
    TITLE "0:"
    INDEX 01 00:07:09
  TRACK 10 AUDIO
    TITLE "9:cjc026_06215"
    INDEX 01 00:07:44
  TRACK 11 AUDIO
    TITLE "0:"
    INDEX 01 00:10:08
  TRACK 12 AUDIO
    TITLE "8:cjc026_06216"
    INDEX 01 00:10:43
  TRACK 13 AUDIO
    TITLE "0:"
    INDEX 01 00:12:15
  TRACK 14 AUDIO
    TITLE "9:cjc026_06217"
    INDEX 01 00:12:47
  TRACK 15 AUDIO
    TITLE "0:"
    INDEX 01 00:13:72
  TRACK 16 AUDIO
    TITLE "8:cjc026_06218"
    INDEX 01 00:14:35
  TRACK 17 AUDIO
    TITLE "0:"
    INDEX 01 00:16:58
  TRACK 18 AUDIO
    TITLE "9:cjc026_06219"
    INDEX 01 00:17:21
  TRACK 19 AUDIO
    TITLE "0:"
    INDEX 01 00:18:37
  TRACK 20 AUDIO
    TITLE "8:cjc026_06220"
    INDEX 01 00:18:72
  TRACK 21 AUDIO
    TITLE "0:"
    INDEX 01 00:20:25
  TRACK 22 AUDIO
    TITLE "9:cjc026_06221"
    INDEX 01 00:20:63
  TRACK 23 AUDIO
    TITLE "0:"
    INDEX 01 00:22:15
  TRACK 24 AUDIO
    TITLE "8:cjc026_06222"
    INDEX 01 00:22:51
  TRACK 25 AUDIO
    TITLE "0:"
    INDEX 01 00:24:11
  TRACK 26 AUDIO
    TITLE "9:cjc026_06223"
    INDEX 01 00:24:49
  TRACK 27 AUDIO
    TITLE "0:"
    INDEX 01 00:26:04
  TRACK 28 AUDIO
    TITLE "8:cjc026_06224"
    INDEX 01 00:26:39
  TRACK 29 AUDIO
    TITLE "0:"
    INDEX 01 00:28:06
  TRACK 30 AUDIO
    TITLE "9:cjc026_06225"
    INDEX 01 00:28:43
  TRACK 31 AUDIO
    TITLE "0:"
    INDEX 01 00:29:66
  TRACK 32 AUDIO
    TITLE "8:cjc026_06226"
    INDEX 01 00:30:28
  TRACK 33 AUDIO
    TITLE "0:"
    INDEX 01 00:31:51
  TRACK 34 AUDIO
    TITLE "9:cjc026_06227"
    INDEX 01 00:32:11
  TRACK 35 AUDIO
    TITLE "0:"
    INDEX 01 00:35:31
  TRACK 36 AUDIO
    TITLE "8:cjc026_06228"
    INDEX 01 00:35:69
  TRACK 37 AUDIO
    TITLE "0:"
    INDEX 01 00:38:30
  TRACK 38 AUDIO
    TITLE "9:cjc026_06229"
    INDEX 01 00:38:66
  TRACK 39 AUDIO
    TITLE "0:"
    INDEX 01 00:42:14
  TRACK 40 AUDIO
    TITLE "8:cjc026_06230"
    INDEX 01 00:42:52
  TRACK 41 AUDIO
    TITLE "0:"
    INDEX 01 00:44:18
  TRACK 42 AUDIO
    TITLE "9:cjc026_06231"
    INDEX 01 00:44:53
  TRACK 43 AUDIO
    TITLE "0:"
    INDEX 01 00:46:16
  TRACK 44 AUDIO
    TITLE "8:cjc026_06232"
    INDEX 01 00:46:54
  TRACK 45 AUDIO
    TITLE "0:"
    INDEX 01 00:48:07
  TRACK 46 AUDIO
    TITLE "9:cjc026_06233"
    INDEX 01 00:48:39
  TRACK 47 AUDIO
    TITLE "0:"
    INDEX 01 00:50:16
  TRACK 48 AUDIO
    TITLE "8:cjc026_06234"
    INDEX 01 00:50:54
  TRACK 49 AUDIO
    TITLE "0:"
    INDEX 01 00:53:53
  TRACK 50 AUDIO
    TITLE "9:cjc026_06235"
    INDEX 01 00:54:13
  TRACK 51 AUDIO
    TITLE "0:"
    INDEX 01 00:56:14
  TRACK 52 AUDIO
    TITLE "8:cjc026_06236"
    INDEX 01 00:56:52
  TRACK 53 AUDIO
    TITLE "0:"
    INDEX 01 00:59:46
  TRACK 54 AUDIO
    TITLE "9:cjc026_06237"
    INDEX 01 01:00:03
  TRACK 55 AUDIO
    TITLE "0:"
    INDEX 01 01:02:10
  TRACK 56 AUDIO
    TITLE "8:cjc026_06238"
    INDEX 01 01:02:48
  TRACK 57 AUDIO
    TITLE "0:"
    INDEX 01 01:05:44
  TRACK 58 AUDIO
    TITLE "9:cjc026_06239"
    INDEX 01 01:06:07
  TRACK 59 AUDIO
    TITLE "0:"
    INDEX 01 01:08:21
  TRACK 60 AUDIO
    TITLE "8:cjc026_06240"
    INDEX 01 01:08:57
  TRACK 61 AUDIO
    TITLE "0:"
    INDEX 01 01:11:50
